<?xml version="1.0" encoding="UTF-8"?>
<svg version="1.1" xmlns="http://www.w3.org/2000/svg" width="512" height="512">
<path d="M0 0 C0.75078827 0.00182281 1.50157654 0.00364563 2.27511597 0.00552368 C13.22478781 0.05030076 23.61132095 0.50682038 34.25 3.3125 C35.57417385 3.62128635 36.89839408 3.92987388 38.22265625 4.23828125 C61.91173187 10.14441701 82.26913924 23.19740505 100.25 39.3125 C101.04019531 40.01761719 101.83039063 40.72273438 102.64453125 41.44921875 C113.67672246 51.8850753 122.287499 64.90100133 129.25 78.3125 C129.85457031 79.4571875 130.45914062 80.601875 131.08203125 81.78125 C134.71703746 88.93447901 137.33026535 96.23373656 139.5625 103.9375 C139.80500488 104.771604 140.04750977 105.60570801 140.29736328 106.46508789 C150.29053237 142.79008096 142.39768178 175.1263417 125.24462891 207.43847656 C124.29909679 209.21999461 123.37358614 211.01209651 122.44921875 212.8046875 C111.88484133 232.75659576 98.42400819 251.89190227 84.53955078 269.65820312 C83.22009076 271.35086899 81.91866454 273.05613463 80.62109375 274.765625 C73.15447617 284.58595779 65.32526348 294.08899525 57.32958984 303.48095703 C54.47503775 306.83989607 51.69083724 310.24455139 48.9375 313.6875 C44.652493 318.96076087 40.05695987 323.90631939 35.38549805 328.83544922 C31.8569719 332.56143547 28.44181394 336.36204104 25.07568359 340.23510742 C21.82851773 343.92996358 18.48196138 347.53006877 15.125 351.125 C14.43535156 351.87458984 13.74570312 352.62417969 13.03515625 353.39648438 C6.04318652 360.8764214 6.04318652 360.8764214 2.25 362.3125 C-2.10212929 362.31740105 -4.14920766 361.78207533 -7.59375 359.08984375 C-8.90859375 357.68412109 -8.90859375 357.68412109 -10.25 356.25 C-11.1265625 355.33089844 -12.003125 354.41179687 -12.90625 353.46484375 C-15.01862128 351.15127641 -17.07775048 348.79419121 -19.1328125 346.4296875 C-22.6884449 342.34652326 -26.39311757 338.42149979 -30.125 334.5 C-35.20735538 329.123485 -40.03394154 323.6737441 -44.64453125 317.88671875 C-46.92200846 315.10219652 -49.31312008 312.45836197 -51.75 309.8125 C-56.64324475 304.48262726 -61.22485992 298.95604869 -65.75 293.3125 C-66.68587212 292.15728807 -67.62208689 291.00235367 -68.55859375 289.84765625 C-106.44438441 242.99186582 -148.95665351 187.90300799 -143.51855469 124.61914062 C-142.94632641 119.74610122 -141.94638921 115.0687575 -140.75 110.3125 C-140.59966309 109.66055664 -140.44932617 109.00861328 -140.29443359 108.33691406 C-134.58667 83.8581356 -121.34269858 62.82626016 -104.75 44.3125 C-104.04488281 43.52230469 -103.33976562 42.73210937 -102.61328125 41.91796875 C-92.1774247 30.88577754 -79.16149867 22.275001 -65.75 15.3125 C-64.03296875 14.40564453 -64.03296875 14.40564453 -62.28125 13.48046875 C-55.12802099 9.84546254 -47.82876344 7.23223465 -40.125 5 C-39.290896 4.75749512 -38.45679199 4.51499023 -37.59741211 4.26513672 C-25.13875088 0.83770294 -12.85396289 -0.06480333 0 0 Z M-76.75 63.3125 C-77.36359375 63.84101562 -77.9771875 64.36953125 -78.609375 64.9140625 C-92.91056042 78.19373468 -102.56623097 96.73732764 -107.75 115.3125 C-108.0696875 116.38757813 -108.389375 117.46265625 -108.71875 118.5703125 C-115.81994385 146.90933609 -110.19296046 177.44715112 -95.43359375 202.30859375 C-79.20132282 228.36461922 -53.36698703 246.78843296 -23.51367188 253.86938477 C6.24702067 259.91220536 36.73419068 254.09407249 62.0625 237.5625 C87.42067373 220.24963668 104.25069326 194.20511594 110.3671875 164.1796875 C115.61496976 133.67482011 108.34992268 103.47202371 90.73779297 78.30029297 C71.68946912 52.85043199 44.16961556 37.79117276 13.07763672 32.97607422 C-20.38396668 28.64670111 -51.84742652 41.62063568 -76.75 63.3125 Z " fill="#000000" transform="translate(255.75,63.6875)"/>
<path d="M0 0 C0.87479004 -0.0112793 1.74958008 -0.02255859 2.65087891 -0.03417969 C3.60269043 -0.02608276 4.55450195 -0.01798584 5.53515625 -0.00964355 C6.54368652 -0.01665283 7.5522168 -0.02366211 8.59130859 -0.03088379 C11.92703739 -0.04849761 15.26191873 -0.03682853 18.59765625 -0.02331543 C20.91406416 -0.02600936 23.23047097 -0.02989094 25.546875 -0.03491211 C30.40245323 -0.04081177 35.25773721 -0.03222881 40.11328125 -0.0135498 C46.34130271 0.00923961 52.5686347 -0.00388091 58.79663086 -0.02783966 C63.5801311 -0.04228475 68.36346752 -0.03769748 73.14697266 -0.02732849 C75.44352296 -0.02465766 77.74008808 -0.02794343 80.03662109 -0.0372467 C83.24486765 -0.0473907 86.45199331 -0.03194026 89.66015625 -0.00964355 C91.08787354 -0.02178894 91.08787354 -0.02178894 92.54443359 -0.03417969 C93.85661865 -0.01726074 93.85661865 -0.01726074 95.1953125 0 C95.95336182 0.0015081 96.71141113 0.0030162 97.49243164 0.00457001 C100.54871662 0.73533552 101.72296531 2.01837536 103.59765625 4.50793457 C104.08984756 7.18655777 104.08984756 7.18655777 104.07867432 10.30389404 C104.08417297 11.48737427 104.08967163 12.67085449 104.09533691 13.89019775 C104.07376526 15.83228119 104.07376526 15.83228119 104.05175781 17.81359863 C104.05062928 19.19348111 104.05126331 20.57336599 104.05352783 21.95324707 C104.0546757 25.69690298 104.03115515 29.44004646 104.003232 33.18358326 C103.97823024 37.09666663 103.97587733 41.00976168 103.97113037 44.9229126 C103.95869695 52.33191307 103.92587052 59.74067751 103.88573241 67.14957404 C103.84102599 75.5847813 103.81903053 84.01999981 103.79895067 92.45529604 C103.7571381 109.80631209 103.68677908 127.15709837 103.59765625 144.50793457 C104.4175 144.46152832 105.23734375 144.41512207 106.08203125 144.36730957 C107.1596875 144.33121582 108.23734375 144.29512207 109.34765625 144.25793457 C110.415 144.21152832 111.48234375 144.16512207 112.58203125 144.11730957 C116.26609353 144.59451971 117.34973445 145.62118601 119.59765625 148.50793457 C120.12890625 150.50793457 120.12890625 150.50793457 120.09765625 152.50793457 C120.113125 153.49793457 120.113125 153.49793457 120.12890625 154.50793457 C119.35266804 157.43024313 117.91434555 158.60216083 115.59765625 160.50793457 C112.99267578 161.01129913 112.99267578 161.01129913 109.98046875 161.01586914 C108.2644043 161.03278809 108.2644043 161.03278809 106.51367188 161.05004883 C105.26263672 161.0419519 104.01160156 161.03385498 102.72265625 161.0255127 C101.3886641 161.03093425 100.05467795 161.03805711 98.72070312 161.04675293 C95.10080277 161.0649857 91.48135851 161.05791931 87.8614502 161.04523659 C84.07298555 161.03510852 80.28455993 161.04450172 76.49609375 161.05078125 C70.13404327 161.05805825 63.77217853 161.0484687 57.41015625 161.02941895 C50.05505488 161.00764993 42.70039702 161.01470128 35.3453064 161.03672457 C29.03010258 161.05487719 22.71503227 161.05743762 16.39981079 161.04696989 C12.62812022 161.04073413 8.85663811 161.03990139 5.08496094 161.05311584 C1.53893272 161.06467192 -2.00652378 161.05665401 -5.55249023 161.03353882 C-7.47443862 161.02572771 -9.39643537 161.03760979 -11.31835938 161.05004883 C-12.46240234 161.03876953 -13.60644531 161.02749023 -14.78515625 161.01586914 C-15.77918457 161.01436104 -16.77321289 161.01285294 -17.79736328 161.01129913 C-21.11998478 160.36926364 -22.31062133 159.11088996 -24.40234375 156.50793457 C-24.93359375 154.50793457 -24.93359375 154.50793457 -24.90234375 152.50793457 C-24.9178125 151.51793457 -24.9178125 151.51793457 -24.93359375 150.50793457 C-24.15033533 147.55919697 -22.7671966 146.40451913 -20.40234375 144.50793457 C-17.38671875 144.11730957 -17.38671875 144.11730957 -14.15234375 144.25793457 C-13.0746875 144.29402832 -11.99703125 144.33012207 -10.88671875 144.36730957 C-10.066875 144.41371582 -9.24703125 144.46012207 -8.40234375 144.50793457 C-8.40603092 143.79009922 -8.40971809 143.07226387 -8.413517 142.33267593 C-8.50182102 124.87315082 -8.56803039 107.41368236 -8.60959244 89.95398331 C-8.63022533 81.51062251 -8.6583597 73.06741069 -8.70410156 64.62414551 C-8.74394722 57.2657301 -8.76977128 49.90742257 -8.77869773 42.54890227 C-8.78391638 38.65189368 -8.79619681 34.75519375 -8.82526398 30.858284 C-8.85239746 27.19093006 -8.86079311 23.52401216 -8.85477448 19.85656738 C-8.85640105 17.86772098 -8.8779347 15.87892215 -8.90002441 13.89019775 C-8.89452576 12.70671753 -8.8890271 11.5232373 -8.88336182 10.30389404 C-8.88704899 9.27517307 -8.89073616 8.2464521 -8.89453506 7.18655777 C-7.96843668 2.1465082 -4.98407327 0.00991557 0 0 Z M18.22265625 27.13293457 C16.11059119 30.21979889 15.9857048 31.83622587 16.59765625 35.50793457 C18.09765625 38.00793457 18.09765625 38.00793457 20.59765625 39.50793457 C24.26936495 40.11988602 25.88579193 39.99499963 28.97265625 37.88293457 C31.08472131 34.79607025 31.2096077 33.17964327 30.59765625 29.50793457 C29.09765625 27.00793457 29.09765625 27.00793457 26.59765625 25.50793457 C22.92594755 24.89598312 21.30952057 25.02086951 18.22265625 27.13293457 Z M42.22265625 27.13293457 C40.11059119 30.21979889 39.9857048 31.83622587 40.59765625 35.50793457 C42.09765625 38.00793457 42.09765625 38.00793457 44.59765625 39.50793457 C48.26936495 40.11988602 49.88579193 39.99499963 52.97265625 37.88293457 C55.08472131 34.79607025 55.2096077 33.17964327 54.59765625 29.50793457 C53.09765625 27.00793457 53.09765625 27.00793457 50.59765625 25.50793457 C46.92594755 24.89598312 45.30952057 25.02086951 42.22265625 27.13293457 Z M66.22265625 27.13293457 C64.11059119 30.21979889 63.9857048 31.83622587 64.59765625 35.50793457 C66.09765625 38.00793457 66.09765625 38.00793457 68.59765625 39.50793457 C72.26936495 40.11988602 73.88579193 39.99499963 76.97265625 37.88293457 C79.08472131 34.79607025 79.2096077 33.17964327 78.59765625 29.50793457 C77.09765625 27.00793457 77.09765625 27.00793457 74.59765625 25.50793457 C70.92594755 24.89598312 69.30952057 25.02086951 66.22265625 27.13293457 Z M18.22265625 51.13293457 C16.11059119 54.21979889 15.9857048 55.83622587 16.59765625 59.50793457 C18.09765625 62.00793457 18.09765625 62.00793457 20.59765625 63.50793457 C24.26936495 64.11988602 25.88579193 63.99499963 28.97265625 61.88293457 C31.08472131 58.79607025 31.2096077 57.17964327 30.59765625 53.50793457 C29.09765625 51.00793457 29.09765625 51.00793457 26.59765625 49.50793457 C22.92594755 48.89598312 21.30952057 49.02086951 18.22265625 51.13293457 Z M42.22265625 51.13293457 C40.11059119 54.21979889 39.9857048 55.83622587 40.59765625 59.50793457 C42.09765625 62.00793457 42.09765625 62.00793457 44.59765625 63.50793457 C48.26936495 64.11988602 49.88579193 63.99499963 52.97265625 61.88293457 C55.08472131 58.79607025 55.2096077 57.17964327 54.59765625 53.50793457 C53.09765625 51.00793457 53.09765625 51.00793457 50.59765625 49.50793457 C46.92594755 48.89598312 45.30952057 49.02086951 42.22265625 51.13293457 Z M66.22265625 51.13293457 C64.11059119 54.21979889 63.9857048 55.83622587 64.59765625 59.50793457 C66.09765625 62.00793457 66.09765625 62.00793457 68.59765625 63.50793457 C72.26936495 64.11988602 73.88579193 63.99499963 76.97265625 61.88293457 C79.08472131 58.79607025 79.2096077 57.17964327 78.59765625 53.50793457 C77.09765625 51.00793457 77.09765625 51.00793457 74.59765625 49.50793457 C70.92594755 48.89598312 69.30952057 49.02086951 66.22265625 51.13293457 Z M18.22265625 75.13293457 C16.11059119 78.21979889 15.9857048 79.83622587 16.59765625 83.50793457 C18.09765625 86.00793457 18.09765625 86.00793457 20.59765625 87.50793457 C24.26936495 88.11988602 25.88579193 87.99499963 28.97265625 85.88293457 C31.08472131 82.79607025 31.2096077 81.17964327 30.59765625 77.50793457 C29.09765625 75.00793457 29.09765625 75.00793457 26.59765625 73.50793457 C22.92594755 72.89598312 21.30952057 73.02086951 18.22265625 75.13293457 Z M42.22265625 75.13293457 C40.11059119 78.21979889 39.9857048 79.83622587 40.59765625 83.50793457 C42.09765625 86.00793457 42.09765625 86.00793457 44.59765625 87.50793457 C48.26936495 88.11988602 49.88579193 87.99499963 52.97265625 85.88293457 C55.08472131 82.79607025 55.2096077 81.17964327 54.59765625 77.50793457 C53.09765625 75.00793457 53.09765625 75.00793457 50.59765625 73.50793457 C46.92594755 72.89598312 45.30952057 73.02086951 42.22265625 75.13293457 Z M66.22265625 75.13293457 C64.11059119 78.21979889 63.9857048 79.83622587 64.59765625 83.50793457 C66.09765625 86.00793457 66.09765625 86.00793457 68.59765625 87.50793457 C72.26936495 88.11988602 73.88579193 87.99499963 76.97265625 85.88293457 C79.08472131 82.79607025 79.2096077 81.17964327 78.59765625 77.50793457 C77.09765625 75.00793457 77.09765625 75.00793457 74.59765625 73.50793457 C70.92594755 72.89598312 69.30952057 73.02086951 66.22265625 75.13293457 Z M31.59765625 112.50793457 C31.59765625 123.06793457 31.59765625 133.62793457 31.59765625 144.50793457 C42.15765625 144.50793457 52.71765625 144.50793457 63.59765625 144.50793457 C63.59765625 133.94793457 63.59765625 123.38793457 63.59765625 112.50793457 C53.03765625 112.50793457 42.47765625 112.50793457 31.59765625 112.50793457 Z " fill="#dc2626" transform="translate(208.40234375,127.4920654296875)"/>
<path d="M0 0 C0.80695313 0.84433594 1.61390625 1.68867188 2.4453125 2.55859375 C3.31671875 3.45964844 4.188125 4.36070312 5.0859375 5.2890625 C7.20407208 7.59702989 9.20840844 9.95126335 11.1953125 12.37109375 C15.75870512 17.63654677 20.65312543 19.91494056 27.5078125 20.93359375 C35.53981686 21.38731003 40.68016003 19.06958058 46.6953125 13.80859375 C50.34887706 10.3252263 53.76632052 6.69585299 57 2.8203125 C57.51820313 2.21832031 58.03640625 1.61632812 58.5703125 0.99609375 C59.41287598 -0.04744263 59.41287598 -0.04744263 60.27246094 -1.11206055 C63.3515764 -3.64712915 64.96905502 -3.37418729 68.90625 -3.09765625 C70.82135376 -2.97438965 70.82135376 -2.97438965 72.77514648 -2.84863281 C74.16532219 -2.73518949 75.55537578 -2.62024112 76.9453125 -2.50390625 C78.38545718 -2.39626176 79.82564353 -2.2891734 81.26586914 -2.18261719 C135.21016992 1.98445529 135.21016992 1.98445529 156.5703125 11.99609375 C156.5703125 12.65609375 156.5703125 13.31609375 156.5703125 13.99609375 C120.63864944 30.78325244 74.18960085 29.36967215 35.26123047 29.31176758 C31.90171845 29.3071582 28.54257045 29.31399605 25.18310547 29.33227539 C7.09939983 29.42958148 -10.85910848 29.15391314 -28.88671875 27.62890625 C-29.61136196 27.56814219 -30.33600517 27.50737812 -31.08260727 27.44477272 C-53.30216699 25.53407855 -76.89503826 23.09404848 -97.4296875 13.99609375 C-97.4296875 13.33609375 -97.4296875 12.67609375 -97.4296875 11.99609375 C-90.94046444 9.22726697 -84.56587424 7.02933097 -77.6796875 5.49609375 C-76.74850098 5.28815186 -75.81731445 5.08020996 -74.85791016 4.8659668 C-56.76164066 1.00713845 -38.30087985 -0.94250391 -19.8671875 -2.31640625 C-18.6901123 -2.40494873 -17.51303711 -2.49349121 -16.30029297 -2.5847168 C-15.2073291 -2.65730713 -14.11436523 -2.72989746 -12.98828125 -2.8046875 C-12.03236084 -2.86825439 -11.07644043 -2.93182129 -10.09155273 -2.99731445 C-5.89611307 -3.00770397 -3.27396758 -2.70023371 0 0 Z " fill="#000000" transform="translate(226.4296875,419.00390625)"/>
</svg>
